<?xml version="1.0" encoding="UTF-8" standalone="no"?>
<!-- Created with Inkscape (http://www.inkscape.org/) -->

<svg
   xmlns:dc="http://purl.org/dc/elements/1.1/"
   xmlns:cc="http://creativecommons.org/ns#"
   xmlns:rdf="http://www.w3.org/1999/02/22-rdf-syntax-ns#"
   xmlns:svg="http://www.w3.org/2000/svg"
   xmlns="http://www.w3.org/2000/svg"
   xmlns:sodipodi="http://sodipodi.sourceforge.net/DTD/sodipodi-0.dtd"
   xmlns:inkscape="http://www.inkscape.org/namespaces/inkscape"
   width="256"
   height="256"
   id="svg10914"
   version="1.1"
   inkscape:version="0.48.4 r9939"
   sodipodi:docname="stop.svg">
  <defs
     id="defs10916">
    <inkscape:path-effect
       effect="spiro"
       id="path-effect8785"
       is_visible="true" />
  </defs>
  <sodipodi:namedview
     id="base"
     pagecolor="#ffffff"
     bordercolor="#666666"
     borderopacity="1.0"
     inkscape:pageopacity="0.0"
     inkscape:pageshadow="2"
     inkscape:zoom="1.4"
     inkscape:cx="98.660419"
     inkscape:cy="-6.397752"
     inkscape:document-units="px"
     inkscape:current-layer="g13106"
     showgrid="false"
     inkscape:showpageshadow="false"
     inkscape:snap-page="true"
     inkscape:snap-bbox="true"
     inkscape:window-width="2560"
     inkscape:window-height="919"
     inkscape:window-x="0"
     inkscape:window-y="0"
     inkscape:window-maximized="1" />
  <metadata
     id="metadata10919">
    <rdf:RDF>
      <cc:Work
         rdf:about="">
        <dc:format>image/svg+xml</dc:format>
        <dc:type
           rdf:resource="http://purl.org/dc/dcmitype/StillImage" />
        <dc:title />
      </cc:Work>
    </rdf:RDF>
  </metadata>
  <g
     inkscape:label="Layer 1"
     inkscape:groupmode="layer"
     id="layer1"
     transform="translate(0,-796.36218)">
    <g
       id="g13106"
       transform="matrix(-1,0,0,-1,256,1848.7244)">
      <path
         style="color:#000000;fill:#b1009e;fill-opacity:1;fill-rule:nonzero;stroke:none;stroke-width:4;marker:none;visibility:visible;display:inline;overflow:visible;enable-background:accumulate"
         d="M 234.05549,992.01157 C 291.48872,862.44567 194.0689,757.49324 72.950559,813.67446 28.767786,834.16881 0,857.2402 0,936.67117 c 9.2229339,114.97673 175.37797,158.35363 234.05549,55.3404 z"
         id="path13108"
         inkscape:connector-curvature="0"
         sodipodi:nodetypes="cscc" />
      <path
         style="opacity:0.54;fill:#fccad1;fill-opacity:1;stroke:none;stroke-width:15;stroke-linecap:round;stroke-miterlimit:4;stroke-opacity:1;stroke-dasharray:none;stroke-dashoffset:0"
         d="m 57.058827,930.8456 c 10,-46.06825 57.231483,-72.58545 82.585443,-74.7283 35.22837,-2.97742 58.63581,33.35078 53.29973,68.29973 -7.14286,46.78253 -36.51719,70.44258 -71.87116,70.44258 -35.353963,0 -71.51362,-29.46465 -64.014013,-64.01401 z"
         id="path5454"
         inkscape:connector-curvature="0"
         sodipodi:nodetypes="sssss" />
      <g
         id="g13110"
         transform="matrix(0.53686818,0.53686818,-0.53686818,0.53686818,555.15223,360.32059)">
        <path
           style="font-size:medium;font-style:normal;font-variant:normal;font-weight:normal;font-stretch:normal;text-indent:0;text-align:start;text-decoration:none;line-height:normal;letter-spacing:normal;word-spacing:normal;text-transform:none;direction:ltr;block-progression:tb;writing-mode:lr-tb;text-anchor:start;baseline-shift:baseline;color:#000000;fill:#e8e8e8;fill-opacity:1;stroke:none;stroke-width:22;marker:none;visibility:visible;display:inline;overflow:visible;enable-background:accumulate;font-family:Sans;-inkscape-font-specification:Sans"
           d="m 76.269678,905.95563 c -2.90572,-0.0411 -5.809986,1.12596 -7.879322,3.16624 -2.069336,2.04028 -3.27734,4.92775 -3.27734,7.83376 0,2.90601 1.208004,5.79348 3.27734,7.83376 2.069336,2.04028 4.973602,3.20734 7.879322,3.16624 l 110.542822,7.45062 c 2.90572,0.0411 5.80999,-1.12596 7.87932,-3.16624 2.06934,-2.04028 3.27734,-4.92775 3.27734,-7.83376 0,-2.90601 -1.208,-5.79348 -3.27734,-7.83376 -2.06933,-2.04028 -4.9736,-3.20733 -7.87932,-3.16624 z"
           id="path2988"
           inkscape:connector-curvature="0"
           sodipodi:nodetypes="csssccssscc" />
        <path
           style="font-size:medium;font-style:normal;font-variant:normal;font-weight:normal;font-stretch:normal;text-indent:0;text-align:start;text-decoration:none;line-height:normal;letter-spacing:normal;word-spacing:normal;text-transform:none;direction:ltr;block-progression:tb;writing-mode:lr-tb;text-anchor:start;baseline-shift:baseline;color:#000000;fill:#ffffff;fill-opacity:1;stroke:none;stroke-width:22;marker:none;visibility:visible;display:inline;overflow:visible;enable-background:accumulate;font-family:Sans;-inkscape-font-specification:Sans"
           d="m 125.8125,852.375 a 11.0011,11.0011 0 0 0 -10.84375,11.15625 L 114.9375,985.25 a 11.0011,11.0011 0 1 0 22,0.0312 l 0.0312,-121.75 A 11.0011,11.0011 0 0 0 125.8125,852.375 z"
           id="path2988-3"
           inkscape:connector-curvature="0" />
      </g>
      <path
         style="fill:none;stroke:#fccad1;stroke-width:12.19999980999999956;stroke-linecap:round;stroke-linejoin:miter;stroke-miterlimit:4;stroke-opacity:1;stroke-dasharray:none;opacity:0.54"
         d="m 135.28571,853.79079 2.85715,-46.42857"
         id="path3911"
         inkscape:connector-curvature="0"
         sodipodi:nodetypes="cc" />
    </g>
  </g>
</svg>
