<?xml version="1.0" encoding="UTF-8" standalone="no"?>
<!-- Created with Inkscape (http://www.inkscape.org/) -->

<svg
   xmlns:dc="http://purl.org/dc/elements/1.1/"
   xmlns:cc="http://creativecommons.org/ns#"
   xmlns:rdf="http://www.w3.org/1999/02/22-rdf-syntax-ns#"
   xmlns:svg="http://www.w3.org/2000/svg"
   xmlns="http://www.w3.org/2000/svg"
   xmlns:sodipodi="http://sodipodi.sourceforge.net/DTD/sodipodi-0.dtd"
   xmlns:inkscape="http://www.inkscape.org/namespaces/inkscape"
   width="256"
   height="256"
   id="svg10914"
   version="1.1"
   inkscape:version="0.48.4 r9939"
   sodipodi:docname="subgrid.svg">
  <defs
     id="defs10916">
    <inkscape:perspective
       sodipodi:type="inkscape:persp3d"
       inkscape:vp_x="-1531.5769 : 414.32496 : 1"
       inkscape:vp_y="0 : 1298.0851 : 0"
       inkscape:vp_z="1143.9614 : 380.2321 : 1"
       inkscape:persp3d-origin="130.72999 : 90.130889 : 1"
       id="perspective4435" />
    <inkscape:path-effect
       effect="spiro"
       id="path-effect8785"
       is_visible="true" />
    <inkscape:perspective
       sodipodi:type="inkscape:persp3d"
       inkscape:vp_x="1412.903 : -188.88027 : 1"
       inkscape:vp_y="0 : -1298.0851 : 0"
       inkscape:vp_z="-1262.6353 : -154.78741 : 1"
       inkscape:persp3d-origin="-249.40393 : 135.3138 : 1"
       id="perspective4435-9" />
  </defs>
  <sodipodi:namedview
     id="base"
     pagecolor="#ffffff"
     bordercolor="#666666"
     borderopacity="1.0"
     inkscape:pageopacity="0.0"
     inkscape:pageshadow="2"
     inkscape:zoom="0.9899495"
     inkscape:cx="-18.410431"
     inkscape:cy="167.64433"
     inkscape:document-units="px"
     inkscape:current-layer="layer1"
     showgrid="false"
     inkscape:showpageshadow="false"
     inkscape:snap-page="true"
     inkscape:snap-bbox="true"
     inkscape:window-width="1716"
     inkscape:window-height="1340"
     inkscape:window-x="1920"
     inkscape:window-y="0"
     inkscape:window-maximized="0" />
  <metadata
     id="metadata10919">
    <rdf:RDF>
      <cc:Work
         rdf:about="">
        <dc:format>image/svg+xml</dc:format>
        <dc:type
           rdf:resource="http://purl.org/dc/dcmitype/StillImage" />
        <dc:title></dc:title>
      </cc:Work>
    </rdf:RDF>
  </metadata>
  <g
     inkscape:label="Layer 1"
     inkscape:groupmode="layer"
     id="layer1"
     transform="translate(0,-796.36218)">
    <g
       id="g13106"
       transform="matrix(-1,0,0,-0.97311708,256,1827.3972)">
      <path
         style="color:#000000;fill:#2fbc8f;fill-opacity:1;fill-rule:nonzero;stroke:none;stroke-width:4;marker:none;visibility:visible;display:inline;overflow:visible;enable-background:accumulate"
         d="M 218.0156,1011.6902 C 290.87801,917.06987 257.26343,799.80919 177.30858,796.07875 51.945122,790.22969 0,779.8899 0,931.55064 -4.9576479,1031.6249 136.10457,1108.8611 218.0156,1011.6902 z"
         id="path13108"
         inkscape:connector-curvature="0"
         sodipodi:nodetypes="cscc" />
      <g
         id="g4437"
         style="fill:#160db4;fill-opacity:1;stroke:none"
         transform="translate(0,-6.0609152)">
        <path
           d="m 216.33965,873.62401 -90.94174,-19.5089 -83.32382,26.51596 88.0441,16.64821 z"
           style="fill:#afafde;fill-rule:evenodd;stroke:none"
           id="path4586"
           inkscape:connector-curvature="0" />
        <path
           d="m 216.33965,982.40809 0,-108.78408 -86.22146,23.65527 0,100.29045 z"
           style="fill:#353564;fill-rule:evenodd;stroke:none"
           id="path4588"
           inkscape:connector-curvature="0" />
        <path
           d="m 130.11819,997.56973 -88.0441,-11.32078 0,-105.61788 88.0441,16.64821 z"
           style="fill:#e9e9ff;fill-rule:evenodd;stroke:none"
           id="path4590"
           inkscape:connector-curvature="0" />
        <path
           d="m 216.33965,982.40809 -90.94174,-13.21258 -83.32382,17.05344 88.0441,11.32078 z"
           style="fill:#4d4d9f;fill-rule:evenodd;stroke:none"
           id="path4592"
           inkscape:connector-curvature="0" />
        <path
           style="fill:#d7fff0;fill-opacity:1;fill-rule:evenodd;stroke:none"
           d="m 213.9375,106.46875 -82.375,53.59375 -0.96875,-0.1875 0,44.4375 83.34375,-26.53125 0,-71.3125 z"
           id="path3811"
           transform="matrix(-1,0,0,-1,256,1058.4231)"
           inkscape:connector-curvature="0" />
        <path
           style="fill:#d7d7ff;fill-rule:evenodd;stroke:none"
           d="m 213.9375,105.28125 -83.34375,-11.75 0,66.34375 0.96875,0.1875 82.375,-53.59375 0,-1.1875 z"
           id="path3809"
           transform="matrix(-1,0,0,-1,256,1058.4231)"
           inkscape:connector-curvature="0" />
        <path
           style="fill:#c4c4ff;fill-opacity:1;fill-rule:evenodd;stroke:none"
           d="m 213.9375,72.1875 -83.34375,17.03125 0,4.3125 83.34375,11.75 0,-33.09375 z"
           id="path4594"
           transform="matrix(-1,0,0,-1,256,1058.4231)"
           inkscape:connector-curvature="0" />
        <path
           style="fill:#a1bf86;fill-opacity:1;fill-rule:evenodd;stroke:none"
           d="m 130.59375,159.90625 -90.9375,-16.625 0,41.53125 90.9375,19.5 0,-44.40625 z"
           id="path3806"
           transform="matrix(-1,0,0,-1,256,1058.4231)"
           inkscape:connector-curvature="0" />
        <path
           style="fill:#8686bf;fill-rule:evenodd;stroke:none"
           d="m 130.59375,93.5625 -1.28125,-0.1875 -89.65625,49.65625 0,0.25 90.9375,16.625 0,-66.34375 z"
           id="path3804"
           transform="matrix(-1,0,0,-1,256,1058.4231)"
           inkscape:connector-curvature="0" />
        <path
           style="fill:#7b7bca;fill-opacity:1;fill-rule:evenodd;stroke:none"
           d="m 39.65625,76 0,67.03125 89.65625,-49.65625 1.28125,0.1875 0,-4.34375 L 39.65625,76 z"
           id="path4596"
           transform="matrix(-1,0,0,-1,256,1058.4231)"
           inkscape:connector-curvature="0" />
        <path
           style="fill:none;stroke:#000000;stroke-width:1.48479867;stroke-linecap:butt;stroke-linejoin:miter;stroke-miterlimit:4;stroke-opacity:1;stroke-dasharray:11.87838948, 11.87838948;stroke-dashoffset:0"
           d="M 255.2576,907.06785 122.10676,881.45746 0.74239935,964.53611 125.03121,982.998 z"
           id="path3007"
           inkscape:connector-curvature="0"
           sodipodi:nodetypes="ccccc" />
      </g>
    </g>
    <path
       style="fill:#ffd365;fill-opacity:1;stroke:none"
       d="m 176.53503,901.58184 -1.57383,-28.607 10.79919,3.1994 -19.179,-40.1746 -19.48464,30.3136 14.78105,4.0859 1.47282,27.3453 z"
       id="path4068"
       inkscape:connector-curvature="0"
       sodipodi:nodetypes="cccccccc" />
    <text
       xml:space="preserve"
       style="font-size:40px;font-style:normal;font-weight:normal;line-height:125%;letter-spacing:0px;word-spacing:0px;fill:#000000;fill-opacity:1;stroke:none;font-family:Sans"
       x="19.105469"
       y="1025.8444"
       id="text3834"
       sodipodi:linespacing="125%"><tspan
         sodipodi:role="line"
         id="tspan3836"
         x="19.105469"
         y="1025.8444"
         style="font-style:italic;font-variant:normal;font-weight:normal;font-stretch:normal;font-family:Droid Serif;-inkscape-font-specification:Droid Serif">Ax+By+Cz&gt;D</tspan></text>
  </g>
</svg>
